<?xml version="1.0" encoding="utf-8"?>
<!-- Generator: Adobe Illustrator 22.1.0, SVG Export Plug-In . SVG Version: 6.00 Build 0)  -->
<svg version="1.1" id="Layer_1" xmlns="http://www.w3.org/2000/svg" xmlns:xlink="http://www.w3.org/1999/xlink" x="0px" y="0px"
	 viewBox="0 0 100 100" style="enable-background:new 0 0 100 100;" xml:space="preserve">
<style type="text/css">
	.st0{fill:#FFFFFF;stroke:#E42626;stroke-miterlimit:10;}
</style>
<g>
	<path class="st0" d="M75.4,33.7H24.6c-1.1,0-2,0.9-2,2v42.1c0,1.1,0.9,2,2,2h9V94c0,3.3,2.7,6,6,6l0,0c3.3,0,6-2.7,6-6V79.8h8.4V94
		c0,3.3,2.7,6,6,6l0,0c3.3,0,6-2.7,6-6V79.8h9.2c1.1,0,2-0.9,2-2V35.7C77.4,34.6,76.5,33.7,75.4,33.7z"/>
	<path class="st0" d="M14,33.7L14,33.7c-3.3,0-6,2.7-6,6v24.2c0,3.3,2.7,6,6,6l0,0c3.3,0,6-2.7,6-6V39.6C20,36.3,17.3,33.7,14,33.7z
		"/>
	<path class="st0" d="M86,33.7L86,33.7c-3.3,0-6,2.7-6,6v24.2c0,3.3,2.7,6,6,6l0,0c3.3,0,6-2.7,6-6V39.6C92,36.3,89.3,33.7,86,33.7z
		"/>
	<path class="st0" d="M25,30.7h49.8c1.3,0,2.3-1.2,2-2.4c-1.6-7.8-6.6-14.3-13.4-18.1l4.3-7.6c0.3-0.5,0.1-1.2-0.4-1.4
		c-0.5-0.3-1.2-0.1-1.5,0.4l-4.3,7.7C58,7.6,54.1,6.7,49.9,6.7c-4.1,0-8,0.9-11.6,2.5l-4.3-7.7c-0.3-0.5-0.9-0.7-1.5-0.4
		c-0.5,0.3-0.7,0.9-0.4,1.4l4.3,7.6C29.7,14,24.7,20.5,23,28.3C22.8,29.5,23.7,30.7,25,30.7z M64.8,19.4c0,1.3-1,2.3-2.3,2.3
		c-1.3,0-2.3-1-2.3-2.3c0-1.3,1-2.3,2.3-2.3S64.8,18.1,64.8,19.4z M37.4,17.1c1.3,0,2.3,1,2.3,2.3c0,1.3-1,2.3-2.3,2.3
		c-1.3,0-2.3-1-2.3-2.3C35.1,18.1,36.1,17.1,37.4,17.1z"/>
</g>
</svg>
